PathFileType	4	(X/Y/Z)	/Users/itak/Documents/Research/Walk-IL/dataset/trc/00361_00011.trc
DataRate	CameraRate	NumFrames	NumMarkers	Units	OrigDataRate	OrigDataStartFrame	OrigNumFrames
100.000000	100.000000	4	54	mm	100.000000	140	563
Frame#	Time	RPSI			LPSI			L3			STRN			T10			C7			CLAV			RBAK			LBAK			LSHO			LUPA			LAEL			LAOL			LWTS			LWPS			LFRA			LIFD			LHPS			LHTS			RSHO			RUPA			RAEL			RAOL			RWTS			RWPS			RFRA			RIFD			RHTS			RHPS			RBHD			LFHD			RFHD			LBHD			LHIP			RHIP			RASI			LASI			LKNE			LTHI			LANK			LTIP			LTOE			LMT1			LMT5			LHEE			RKNE			RTHI			RTIP			RTOE			RMT1			RMT5			RANK			RHEE			*53			
		X1	Y1	Z1	X2	Y2	Z2	X3	Y3	Z3	X4	Y4	Z4	X5	Y5	Z5	X6	Y6	Z6	X7	Y7	Z7	X8	Y8	Z8	X9	Y9	Z9	X10	Y10	Z10	X11	Y11	Z11	X12	Y12	Z12	X13	Y13	Z13	X14	Y14	Z14	X15	Y15	Z15	X16	Y16	Z16	X17	Y17	Z17	X18	Y18	Z18	X19	Y19	Z19	X20	Y20	Z20	X21	Y21	Z21	X22	Y22	Z22	X23	Y23	Z23	X24	Y24	Z24	X25	Y25	Z25	X26	Y26	Z26	X27	Y27	Z27	X28	Y28	Z28	X29	Y29	Z29	X30	Y30	Z30	X31	Y31	Z31	X32	Y32	Z32	X33	Y33	Z33	X34	Y34	Z34	X35	Y35	Z35	X36	Y36	Z36	X37	Y37	Z37	X38	Y38	Z38	X39	Y39	Z39	X40	Y40	Z40	X41	Y41	Z41	X42	Y42	Z42	X43	Y43	Z43	X44	Y44	Z44	X45	Y45	Z45	X46	Y46	Z46	X47	Y47	Z47	X48	Y48	Z48	X49	Y49	Z49	X50	Y50	Z50	X51	Y51	Z51	X52	Y52	Z52	X53	Y53	Z53	X54	Y54	Z54	

141	1.4	-1381.021118164062	980.7567138671875	824.6265869140625	-1378.729858398438	979.3494262695312	695.224609375	-1379.57177734375	1030.502807617188	762.970947265625	-1161.584228515625	1225.883422851562	755.2885131835938	-1396.288452148438	1148.262329101562	749.5443725585938	-1366.478149414062	1398.00537109375	733.5908203125	-1207.805053710938	1350.599609375	747.4736938476562	-1409.708984375	1258.1435546875	799.9999389648438	-1370.723022460938	1358.67431640625	631.1793823242188	-1284.106323242188	1380.489013671875	579.3223876953125	-1292.454956054688	1257.216430664062	514.9589233398438	-1265.5458984375	1053.090087890625	509.2816162109375	-1330.43212890625	1038.81005859375	561.4217529296875	-1160.44921875	816.082763671875	565.8641967773438	-1197.035888671875	801.5236206054688	508.9872741699219	-1244.408325195312	949.6205444335938	506.1311950683594	-1151.77978515625	653.9188232421875	571.3117065429688	-1199.505493164062	732.0960083007812	517.1990966796875	-1146.81298828125	738.7919921875	553.781005859375	-1317.767822265625	1390.57861328125	900.4739379882812	-1327.898681640625	1324.49609375	962.5067749023438	-1306.776245117188	1055.123291015625	995.9892578125	-1342.427001953125	1048.554931640625	908.8643798828125	-1185.241821289062	832.5176391601562	947.072998046875	-1221.644897460938	815.1760864257812	1012.35693359375	-1279.677612304688	989.7431640625	1005.309936523438	-1165.504638671875	660.037353515625	953.8045043945312	-1152.097900390625	735.6524658203125	960.59814453125	-1202.670166015625	731.574462890625	1008.088256835938	-1350.242919921875	1604.193969726562	812.243896484375	-1173.650268554688	1633.39013671875	705.308837890625	-1190.823608398438	1634.436279296875	805.3549194335938	-1352.841186523438	1595.839111328125	668.1118774414062	-1289.916870117188	920.7115478515625	594.4349975585938	-1306.696166992188	927.574951171875	935.0934448242188	-1198.390014648438	953.5800170898438	894.100341796875	-1169.733764648438	946.6909790039062	655.8784790039062	-1269.46044921875	468.82421875	581.3340454101562	-1257.3740234375	606.200927734375	580.0468139648438	-1350.195556640625	52.33042526245117	562.8294677734375	-1310.758422851562	255.2940521240234	560.0372924804688	-1153.013671875	46.43880462646484	646.3228759765625	-1227.858642578125	33.5999755859375	677.2224731445312	-1222.922119140625	47.27787017822266	564.0093383789062	-1392.693481445312	45.69659042358398	624.2767333984375	-1302.712768554688	468.2933349609375	938.71142578125	-1234.35693359375	718.6748657226562	943.0923461914062	-1304.670043945312	351.1212158203125	939.376220703125	-1187.90576171875	47.05405426025391	905.9057006835938	-1239.16357421875	46.30152893066406	860.05908203125	-1286.635986328125	37.04281997680664	968.8408203125	-1385.512573242188	51.42254257202148	943.4478759765625	-1426.101684570312	76.74042510986328	896.9302978515625	nan	nan	nan	
142	1.41	-1381.053344726562	980.822265625	824.7073364257812	-1378.632934570312	979.3521728515625	695.2645263671875	-1379.492919921875	1030.566162109375	763.0838623046875	-1161.589965820312	1225.745239257812	755.3309936523438	-1396.137817382812	1148.265869140625	749.5994262695312	-1366.273559570312	1398.011962890625	733.6573486328125	-1207.707275390625	1350.520751953125	747.5902709960938	-1409.572143554688	1258.156494140625	800.0810546875	-1370.511474609375	1358.664306640625	631.1982421875	-1283.865600585938	1380.461059570312	579.427734375	-1292.263549804688	1257.205200195312	515.0850219726562	-1265.216918945312	1053.161376953125	509.2900390625	-1330.072998046875	1038.767578125	561.5067138671875	-1160.154663085938	816.0577392578125	565.7986450195312	-1196.62109375	801.647705078125	509.1215209960938	-1244.081298828125	949.6814575195312	506.1347961425781	-1151.533325195312	653.8360595703125	571.3775024414062	-1199.139526367188	732.02978515625	517.4524536132812	-1146.42236328125	738.7530517578125	553.8740234375	-1317.594970703125	1390.560913085938	900.6047973632812	-1327.744018554688	1324.482788085938	962.6004638671875	-1306.598999023438	1055.065307617188	996.0942993164062	-1342.3193359375	1048.518310546875	908.9496459960938	-1185.015747070312	832.4434204101562	946.849365234375	-1221.394653320312	815.125	1012.346252441406	-1279.505981445312	989.6766967773438	1005.386901855469	-1165.25732421875	659.998779296875	953.497802734375	-1151.632568359375	735.8851928710938	960.5316162109375	-1202.44091796875	731.4855346679688	1007.985229492188	-1350.02490234375	1604.231567382812	812.3897705078125	-1173.362426757812	1633.359130859375	705.4495849609375	-1190.593383789062	1634.349609375	805.4568481445312	-1352.502197265625	1595.843505859375	668.27001953125	-1289.829345703125	920.6350708007812	594.5158081054688	-1306.830810546875	927.5300903320312	935.1290893554688	-1198.507446289062	953.5352783203125	894.1244506835938	-1169.75537109375	946.6484375	655.9290771484375	-1269.287719726562	468.7186584472656	581.0333862304688	-1257.313110351562	606.2359619140625	579.8809814453125	-1350.229736328125	52.22203063964844	562.6119995117188	-1310.47509765625	255.2291870117188	559.8483276367188	-1153.106201171875	46.60204315185547	646.3111572265625	-1227.869018554688	33.64702606201172	677.188232421875	-1222.9443359375	47.25759887695312	563.962646484375	-1392.751586914062	45.78757858276367	624.1157836914062	-1301.432495117188	468.2575378417969	938.9424438476562	-1234.405883789062	718.599853515625	943.07763671875	-1303.349487304688	350.787353515625	939.2951049804688	-1187.927124023438	47.44584655761719	905.9321899414062	-1239.191772460938	46.4088249206543	860.08544921875	-1286.6796875	37.20071029663086	968.7462158203125	-1385.561767578125	51.46437072753906	943.4152221679688	-1426.11669921875	77.02564239501953	896.9762573242188	nan	nan	nan	
143	1.42	-1381.136474609375	980.9028930664062	824.809814453125	-1378.533569335938	979.3563842773438	695.3442993164062	-1379.419311523438	1030.638916015625	763.2268676757812	-1161.5810546875	1225.594848632812	755.39892578125	-1395.991943359375	1148.269287109375	749.6605834960938	-1366.052856445312	1398.026611328125	733.742431640625	-1207.573120117188	1350.418334960938	747.71875	-1409.435302734375	1258.187377929688	800.183837890625	-1370.28271484375	1358.685791015625	631.2449340820312	-1283.578002929688	1380.410400390625	579.5370483398438	-1292.039916992188	1257.177978515625	515.2410888671875	-1264.811767578125	1053.246215820312	509.3222351074219	-1329.655151367188	1038.721435546875	561.6058959960938	-1159.7587890625	816.0243530273438	565.7587890625	-1196.159057617188	801.7803955078125	509.2496032714844	-1243.69921875	949.7472534179688	506.1668090820312	-1151.26220703125	653.7366333007812	571.4247436523438	-1198.714965820312	732.0038452148438	517.6695556640625	-1145.979736328125	738.7096557617188	553.96533203125	-1317.409423828125	1390.541625976562	900.7449951171875	-1327.587158203125	1324.459594726562	962.7154541015625	-1306.393310546875	1055.0087890625	996.2432861328125	-1342.217529296875	1048.473876953125	909.107177734375	-1184.841430664062	832.3629760742188	946.652587890625	-1221.102783203125	815.0459594726562	1012.369201660156	-1279.307861328125	989.6135864257812	1005.487670898438	-1165.041748046875	659.9559936523438	953.2713623046875	-1151.1669921875	736.060302734375	960.4754638671875	-1202.193115234375	731.39599609375	1007.922607421875	-1349.80322265625	1604.2646484375	812.5496826171875	-1173.066162109375	1633.328125	705.6168823242188	-1190.33544921875	1634.263916015625	805.5736083984375	-1352.145874023438	1595.845092773438	668.4229125976562	-1289.741821289062	920.5614013671875	594.6331176757812	-1306.993896484375	927.5130615234375	935.2158203125	-1198.654541015625	953.5180053710938	894.1995849609375	-1169.804565429688	946.593505859375	656.04345703125	-1269.047729492188	468.5768127441406	580.6963500976562	-1257.240112304688	606.2884521484375	579.691162109375	-1350.267822265625	52.07672882080078	562.3419189453125	-1310.1611328125	255.1411437988281	559.631591796875	-1153.22705078125	46.8197021484375	646.2571411132812	-1227.8896484375	33.7324104309082	677.126953125	-1222.973266601562	47.22847747802734	563.8952026367188	-1392.8310546875	45.87923431396484	623.9104614257812	-1299.726928710938	468.1544799804688	939.2160034179688	-1234.483154296875	718.5528564453125	943.114013671875	-1301.6328125	350.3196411132812	939.1934814453125	-1187.943115234375	47.88899230957031	905.955322265625	-1239.220947265625	46.51060485839844	860.104248046875	-1286.72900390625	37.37979125976562	968.6431274414062	-1385.612548828125	51.51451110839844	943.3843994140625	-1426.132690429688	77.30534362792969	897.0147094726562	nan	nan	nan	
144	1.43	-1381.272705078125	980.9910278320312	824.9368286132812	-1378.43359375	979.36572265625	695.4763793945312	-1379.3564453125	1030.716552734375	763.3999633789062	-1161.534057617188	1225.439208984375	755.5059204101562	-1395.8505859375	1148.272827148438	749.7315673828125	-1365.8125	1398.04638671875	733.8529663085938	-1207.397827148438	1350.291381835938	747.868408203125	-1409.296264648438	1258.238525390625	800.3118896484375	-1370.02587890625	1358.735717773438	631.331298828125	-1283.2392578125	1380.3388671875	579.6577758789062	-1291.765380859375	1257.144409179688	515.4258422851562	-1264.3310546875	1053.333984375	509.3923645019531	-1329.180541992188	1038.67138671875	561.7135620117188	-1159.252807617188	815.9915771484375	565.7635498046875	-1195.651611328125	801.9080200195312	509.3707275390625	-1243.2548828125	949.8087158203125	506.2422790527344	-1150.931640625	653.6405639648438	571.4583129882812	-1198.224731445312	732.0297241210938	517.83544921875	-1145.483520507812	738.667236328125	554.0554809570312	-1317.208862304688	1390.516967773438	900.8959350585938	-1327.42333984375	1324.42431640625	962.856201171875	-1306.149169921875	1054.958740234375	996.4407958984375	-1342.113891601562	1048.4189453125	909.3449096679688	-1184.687866210938	832.29736328125	946.5114135742188	-1220.765869140625	814.9443969726562	1012.430297851562	-1279.070068359375	989.5595092773438	1005.617797851562	-1164.844970703125	659.9151611328125	953.1270751953125	-1150.724365234375	736.1665649414062	960.4293212890625	-1201.913940429688	731.3065185546875	1007.901733398438	-1349.568115234375	1604.284912109375	812.72802734375	-1172.763061523438	1633.294799804688	705.8141479492188	-1190.038818359375	1634.1767578125	805.7100830078125	-1351.783569335938	1595.8427734375	668.573974609375	-1289.661987304688	920.5013427734375	594.79541015625	-1307.19482421875	927.5247192382812	935.3804321289062	-1198.840576171875	953.5292358398438	894.3527221679688	-1169.876220703125	946.5321655273438	656.2398681640625	-1268.72265625	468.3994445800781	580.3372802734375	-1257.146240234375	606.3605346679688	579.4935302734375	-1350.308837890625	51.89301681518555	562.0244140625	-1309.810913085938	255.0310974121094	559.3873291015625	-1153.373291015625	47.09709167480469	646.1524047851562	-1227.921264648438	33.86670303344727	677.0364379882812	-1223.0107421875	47.18841171264648	563.804443359375	-1392.927368164062	45.95541763305664	623.6617431640625	-1297.557983398438	467.9605407714844	939.5428466796875	-1234.598388671875	718.5344848632812	943.228271484375	-1299.494506835938	349.7106323242188	939.0657348632812	-1187.944458007812	48.34584808349609	905.9570922851562	-1239.24609375	46.59051513671875	860.107177734375	-1286.776245117188	37.57633209228516	968.5357055664062	-1385.654174804688	51.57998275756836	943.348876953125	-1426.144653320312	77.56317138671875	897.0371704101562	nan	nan	nan	
